<?xml version="1.0" encoding="UTF-8" standalone="no"?>
<svg
   xmlns:dc="http://purl.org/dc/elements/1.1/"
   xmlns:cc="http://creativecommons.org/ns#"
   xmlns:rdf="http://www.w3.org/1999/02/22-rdf-syntax-ns#"
   xmlns:svg="http://www.w3.org/2000/svg"
   xmlns="http://www.w3.org/2000/svg"
   xmlns:sodipodi="http://sodipodi.sourceforge.net/DTD/sodipodi-0.dtd"
   xmlns:inkscape="http://www.inkscape.org/namespaces/inkscape"
   inkscape:version="1.0rc1 (09960d6f05, 2020-04-09)"
   sodipodi:docname="logo.svg"
   id="svg77"
   preserveAspectRatio="xMidYMid meet"
   viewBox="0 0 309.000000 129.000000"
   height="129.000000pt"
   width="309.000000pt"
   version="1.0">
  <defs
     id="defs81" />
  <sodipodi:namedview
     inkscape:current-layer="g75"
     inkscape:window-maximized="0"
     inkscape:window-y="0"
     inkscape:window-x="0"
     inkscape:cy="141.83477"
     inkscape:cx="301.22911"
     inkscape:zoom="2.0011808"
     showgrid="false"
     id="namedview79"
     inkscape:window-height="1369"
     inkscape:window-width="2735"
     inkscape:pageshadow="2"
     inkscape:pageopacity="0"
     guidetolerance="10"
     gridtolerance="10"
     objecttolerance="10"
     borderopacity="1"
     bordercolor="#666666"
     pagecolor="#ffffff" />
  <metadata
     id="metadata65">
Created by potrace 1.15, written by Peter Selinger 2001-2017
<rdf:RDF>
  <cc:Work
     rdf:about="">
    <dc:format>image/svg+xml</dc:format>
    <dc:type
       rdf:resource="http://purl.org/dc/dcmitype/StillImage" />
  </cc:Work>
</rdf:RDF>
</metadata>
  <g
     id="g75"
     stroke="none"
     fill="#000000"
     transform="matrix(0.1,0,0,-0.1,0,129)">
    <path
       inkscape:connector-curvature="0"
       id="path67"
       d="m 300.06196,1058.5133 c -55,-10 -82,-26 -102,-64.00002 -16,-29 -18,-65 -18,-333 v -301 l 30,-49 c 52,-85 49,-84 443,-84 384.00004,0 396.00004,2 434.00004,66 l 22,37 35,-41 c 20,-22 46,-45 58,-51 30,-15 638,-15 682,0 25,9 38,9 55,0 12,-7 42,-11 66,-9 l 45,3 50,90 c 36,64 57,91 75,96 39,11 476,10 504,-1 17,-6 36,-30 57,-72 56,-110 64,-118 131,-118 41,0 60,4 64,14 5,12 -122,254 -182,348 -13,20 -67,114 -120,210 -53,95 -110,194 -127,220.00002 l -32,47 -72,1 c -40,0 -73,-4 -73,-8 0,-9 -214,-400.00002 -301,-550.00002 l -54,-94 -7,84 c -10,113 -11,117 -61,169 -32,34 -54,48 -83,52 -21,4 -153,7 -292,7 h -253 l 3,93 3,92 263,3 262,2 v -35 c 0,-19 5,-35 11,-35 6,0 19,-10 28,-21 16,-20 21,-21 54,-10 47,16 57,35 48,88 -14,72 -70,138.00002 -130,150.00002 -20,5 -160,8 -311,8 -300,0 -313,-2 -354,-58 -19,-26.00002 -21,-42.00002 -21,-166.00002 0,-137 0,-138 30,-181 49,-70 62,-73 378,-78 l 277,-4 v -99 -99 h -285 -285 v 35 c 0,22 -6,38 -15,41 -8,4 -15,15 -15,26 0,18 -4,19 -37,14 -21,-4 -46,-9 -55,-12 -16,-5 -18,4 -18,86 0,71 -3,92 -15,96 -8,4 -15,15 -15,25 0,18 -11,19 -230.00004,19 h -230 v -50 c 0,-36 4,-50 14,-50 8,0 16,-7 20,-15 4,-12 31,-15 151,-15 h 145 v -100 -100 h -305 -305 v 258 c 0,187 3,261 12,270 9,9 90,12 305,12 h 293 v -35 c 0,-23 5,-35 14,-35 7,0 16,-10 19,-21 5,-20 11,-21 53.00004,-15 26,3 53,11 60,17 24,20 17,91 -14,140 -42,64.00002 -62,78.00002 -128.00004,89.00002 -66,11 -586,11 -649,1 z M 2516.062,752.51328 c 40,-77 79,-146 86,-153 7,-7 13,-18 13,-23 0,-5 -80,-9 -190,-9 -104,0 -190,3 -190,7 0,3 13,27 29,52 15,25 54,96 86,156 56,108 73,131 87,117 3,-4 39,-70 79,-147 z" />
  </g>
</svg>
